{
    "accessors": {
        "accessor_102": {
            "bufferView": "bufferView_137",
            "byteOffset": 13992,
            "byteStride": 0,
            "componentType": 5123,
            "count": 36,
            "type": "SCALAR"
        },
        "accessor_104": {
            "bufferView": "bufferView_138",
            "byteOffset": 223872,
            "byteStride": 12,
            "componentType": 5126,
            "count": 36,
            "max": [
                2.515000104904175,
                0.6629130244255066,
                0.6629130244255066
            ],
            "min": [
                2.4000000953674316,
                0.14672499895095825,
                0.14672499895095825
            ],
            "type": "VEC3"
        },
        "accessor_106": {
            "bufferView": "bufferView_138",
            "byteOffset": 224304,
            "byteStride": 12,
            "componentType": 5126,
            "count": 36,
            "max": [
                0.7071110010147095,
                0.7071040272712708,
                0.7071089744567871
            ],
            "min": [
                -1,
                -0.7071080207824707,
                -0.7071080207824707
            ],
            "type": "VEC3"
        },
        "accessor_108": {
            "bufferView": "bufferView_138",
            "byteOffset": 224736,
            "byteStride": 8,
            "componentType": 5126,
            "count": 36,
            "max": [
                0.20843499898910522,
                1
            ],
            "min": [
                0,
                0.8002439737319946
            ],
            "type": "VEC2"
        },
        "accessor_129": {
            "bufferView": "bufferView_137",
            "byteOffset": 14064,
            "byteStride": 0,
            "componentType": 5123,
            "count": 36,
            "type": "SCALAR"
        },
        "accessor_131": {
            "bufferView": "bufferView_138",
            "byteOffset": 225024,
            "byteStride": 12,
            "componentType": 5126,
            "count": 36,
            "max": [
                2.515000104904175,
                0.6629130244255066,
                -0.14672499895095825
            ],
            "min": [
                2.4000000953674316,
                0.14672499895095825,
                -0.6629130244255066
            ],
            "type": "VEC3"
        },
        "accessor_133": {
            "bufferView": "bufferView_138",
            "byteOffset": 225456,
            "byteStride": 12,
            "componentType": 5126,
            "count": 36,
            "max": [
                0.7071110010147095,
                0.7071040272712708,
                0.7071049809455872
            ],
            "min": [
                -1,
                -0.7071080207824707,
                -0.7071089744567871
            ],
            "type": "VEC3"
        },
        "accessor_135": {
            "bufferView": "bufferView_138",
            "byteOffset": 225888,
            "byteStride": 8,
            "componentType": 5126,
            "count": 36,
            "max": [
                0.20843499898910522,
                1
            ],
            "min": [
                0,
                0.8002439737319946
            ],
            "type": "VEC2"
        },
        "accessor_21": {
            "bufferView": "bufferView_137",
            "byteOffset": 0,
            "byteStride": 0,
            "componentType": 5123,
            "count": 6900,
            "type": "SCALAR"
        },
        "accessor_23": {
            "bufferView": "bufferView_138",
            "byteOffset": 0,
            "byteStride": 12,
            "componentType": 5126,
            "count": 6900,
            "max": [
                2.569999933242798,
                0.6629130244255066,
                2.075000047683716
            ],
            "min": [
                0,
                -0.08634399622678757,
                -2.075000047683716
            ],
            "type": "VEC3"
        },
        "accessor_25": {
            "bufferView": "bufferView_138",
            "byteOffset": 82800,
            "byteStride": 12,
            "componentType": 5126,
            "count": 6900,
            "max": [
                1,
                1,
                1
            ],
            "min": [
                -1,
                -1,
                -1
            ],
            "type": "VEC3"
        },
        "accessor_27": {
            "bufferView": "bufferView_138",
            "byteOffset": 165600,
            "byteStride": 8,
            "componentType": 5126,
            "count": 6900,
            "max": [
                1,
                1
            ],
            "min": [
                0,
                0
            ],
            "type": "VEC2"
        },
        "accessor_48": {
            "bufferView": "bufferView_137",
            "byteOffset": 13800,
            "byteStride": 0,
            "componentType": 5123,
            "count": 48,
            "type": "SCALAR"
        },
        "accessor_50": {
            "bufferView": "bufferView_138",
            "byteOffset": 220800,
            "byteStride": 12,
            "componentType": 5126,
            "count": 48,
            "max": [
                1.5664199590682983,
                0.01707090064883232,
                2.075000047683716
            ],
            "min": [
                1.4350000619888306,
                -0.01707090064883232,
                1.1200000047683716
            ],
            "type": "VEC3"
        },
        "accessor_52": {
            "bufferView": "bufferView_138",
            "byteOffset": 221376,
            "byteStride": 12,
            "componentType": 5126,
            "count": 48,
            "max": [
                0.1644349992275238,
                0.9867240190505981,
                1
            ],
            "min": [
                -0.9995819926261902,
                -0.986723005771637,
                -1
            ],
            "type": "VEC3"
        },
        "accessor_54": {
            "bufferView": "bufferView_138",
            "byteOffset": 221952,
            "byteStride": 8,
            "componentType": 5126,
            "count": 48,
            "max": [
                0.02334200032055378,
                1
            ],
            "min": [
                0,
                0.6549980044364929
            ],
            "type": "VEC2"
        },
        "accessor_75": {
            "bufferView": "bufferView_137",
            "byteOffset": 13896,
            "byteStride": 0,
            "componentType": 5123,
            "count": 48,
            "type": "SCALAR"
        },
        "accessor_77": {
            "bufferView": "bufferView_138",
            "byteOffset": 222336,
            "byteStride": 12,
            "componentType": 5126,
            "count": 48,
            "max": [
                1.5664199590682983,
                0.01707090064883232,
                -1.1200000047683716
            ],
            "min": [
                1.4350000619888306,
                -0.01707090064883232,
                -2.075000047683716
            ],
            "type": "VEC3"
        },
        "accessor_79": {
            "bufferView": "bufferView_138",
            "byteOffset": 222912,
            "byteStride": 12,
            "componentType": 5126,
            "count": 48,
            "max": [
                0.16451500356197357,
                0.9867219924926758,
                1
            ],
            "min": [
                -0.9995819926261902,
                -0.9867309927940369,
                -1
            ],
            "type": "VEC3"
        },
        "accessor_81": {
            "bufferView": "bufferView_138",
            "byteOffset": 223488,
            "byteStride": 8,
            "componentType": 5126,
            "count": 48,
            "max": [
                0.02334200032055378,
                1
            ],
            "min": [
                0,
                0.6549980044364929
            ],
            "type": "VEC2"
        }
    },
    "animations": {},
    "asset": {
        "generator": "collada2gltf@",
        "premultipliedAlpha": true,
        "profile": {
            "api": "WebGL",
            "version": "1.0.2"
        },
        "version": 1
    },
    "bufferViews": {
        "bufferView_137": {
            "buffer": "input",
            "byteLength": 14136,
            "byteOffset": 0,
            "target": 34963
        },
        "bufferView_138": {
            "buffer": "input",
            "byteLength": 226176,
            "byteOffset": 14136,
            "target": 34962
        }
    },
    "buffers": {
        "input": {
            "byteLength": 240312,
            "type": "arraybuffer",
            "uri": "data:application/octet-stream;base64,"
        }
    },
    "cameras": {
        "Camera-camera": {
            "name": "Camera",
            "perspective": {
                "aspect_ratio": 1.7777799367904663,
                "yfov": 0.48237427870788735,
                "zfar": 100,
                "znear": 0.10000000149011612
            },
            "type": "perspective"
        }
    },
    "materials": {
        "MTL0-effect": {
            "name": "MTL0",
            "technique": "technique0",
            "values": {
                "ambient": [
                    0,
                    0,
                    0,
                    1
                ],
                "diffuse": [
                    0.8820000290870667,
                    0.8820000290870667,
                    0.8820000290870667,
                    1
                ],
                "emission": [
                    0,
                    0,
                    0,
                    1
                ],
                "shininess": 50,
                "specular": [
                    0.5,
                    0.5,
                    0.5,
                    1
                ]
            }
        },
        "MTL0_001-effect": {
            "name": "MTL0_001",
            "technique": "technique0",
            "values": {
                "ambient": [
                    0,
                    0,
                    0,
                    1
                ],
                "diffuse": [
                    1,
                    0.5,
                    0,
                    1
                ],
                "emission": [
                    0,
                    0,
                    0,
                    1
                ],
                "shininess": 50,
                "specular": [
                    0.5,
                    0.5,
                    0.5,
                    1
                ]
            }
        },
        "MTL0_002-effect": {
            "name": "MTL0_002",
            "technique": "technique0",
            "values": {
                "ambient": [
                    0,
                    0,
                    0,
                    1
                ],
                "diffuse": [
                    1,
                    0.5,
                    0,
                    1
                ],
                "emission": [
                    0,
                    0,
                    0,
                    1
                ],
                "shininess": 50,
                "specular": [
                    0.5,
                    0.5,
                    0.5,
                    1
                ]
            }
        },
        "MTL0_003-effect": {
            "name": "MTL0_003",
            "technique": "technique0",
            "values": {
                "ambient": [
                    0,
                    0,
                    0,
                    1
                ],
                "diffuse": [
                    1,
                    0.5,
                    0,
                    1
                ],
                "emission": [
                    0,
                    0,
                    0,
                    1
                ],
                "shininess": 50,
                "specular": [
                    0.5,
                    0.5,
                    0.5,
                    1
                ]
            }
        },
        "MTL0_004-effect": {
            "name": "MTL0_004",
            "technique": "technique0",
            "values": {
                "ambient": [
                    0,
                    0,
                    0,
                    1
                ],
                "diffuse": [
                    1,
                    0.5,
                    0,
                    1
                ],
                "emission": [
                    0,
                    0,
                    0,
                    1
                ],
                "shininess": 50,
                "specular": [
                    0.5,
                    0.5,
                    0.5,
                    1
                ]
            }
        }
    },
    "meshes": {
        "_-mesh": {
            "name": "1",
            "primitives": [
                {
                    "attributes": {
                        "NORMAL": "accessor_25",
                        "POSITION": "accessor_23",
                        "TEXCOORD_0": "accessor_27"
                    },
                    "indices": "accessor_21",
                    "material": "MTL0-effect",
                    "mode": 4
                }
            ]
        },
        "__001-mesh": {
            "name": "1.001",
            "primitives": [
                {
                    "attributes": {
                        "NORMAL": "accessor_52",
                        "POSITION": "accessor_50",
                        "TEXCOORD_0": "accessor_54"
                    },
                    "indices": "accessor_48",
                    "material": "MTL0_001-effect",
                    "mode": 4
                }
            ]
        },
        "__002-mesh": {
            "name": "1.002",
            "primitives": [
                {
                    "attributes": {
                        "NORMAL": "accessor_79",
                        "POSITION": "accessor_77",
                        "TEXCOORD_0": "accessor_81"
                    },
                    "indices": "accessor_75",
                    "material": "MTL0_002-effect",
                    "mode": 4
                }
            ]
        },
        "__003-mesh": {
            "name": "1.003",
            "primitives": [
                {
                    "attributes": {
                        "NORMAL": "accessor_106",
                        "POSITION": "accessor_104",
                        "TEXCOORD_0": "accessor_108"
                    },
                    "indices": "accessor_102",
                    "material": "MTL0_003-effect",
                    "mode": 4
                }
            ]
        },
        "__004-mesh": {
            "name": "1.004",
            "primitives": [
                {
                    "attributes": {
                        "NORMAL": "accessor_133",
                        "POSITION": "accessor_131",
                        "TEXCOORD_0": "accessor_135"
                    },
                    "indices": "accessor_129",
                    "material": "MTL0_004-effect",
                    "mode": 4
                }
            ]
        }
    },
    "nodes": {
        "Camera": {
            "camera": "Camera-camera",
            "children": [],
            "matrix": [
                0.6858810186386108,
                0.7276340126991272,
                -0.010816800408065319,
                0,
                -0.3173699975013733,
                0.3124690055847168,
                0.895343005657196,
                0,
                0.6548619866371155,
                -0.6106659770011902,
                0.44524499773979187,
                0,
                7.4811296463012695,
                -6.5076398849487305,
                5.3436598777771,
                1
            ],
            "name": "Camera"
        },
        "Lamp": {
            "children": [],
            "matrix": [
                -0.2908650040626526,
                0.9551709890365601,
                -0.055189099162817,
                0,
                -0.7711009979248047,
                -0.19988299906253815,
                0.6045249700546265,
                0,
                0.5663930177688599,
                0.21839100122451782,
                0.7946720123291016,
                0,
                4.076250076293945,
                1.0054500102996826,
                5.903859615325928,
                1
            ],
            "name": "Lamp"
        },
        "_": {
            "children": [],
            "matrix": [
                1,
                0,
                0,
                0,
                0,
                -0.000000043711398944878965,
                1,
                0,
                0,
                -1,
                -0.000000043711398944878965,
                0,
                0,
                0,
                0,
                1
            ],
            "meshes": [
                "_-mesh"
            ],
            "name": "_"
        },
        "__001": {
            "children": [],
            "matrix": [
                1,
                0,
                0,
                0,
                0,
                -0.000000043711398944878965,
                1,
                0,
                0,
                -1,
                -0.000000043711398944878965,
                0,
                0,
                0,
                0,
                1
            ],
            "meshes": [
                "__001-mesh"
            ],
            "name": "__001"
        },
        "__002": {
            "children": [],
            "matrix": [
                1,
                0,
                0,
                0,
                0,
                -0.000000043711398944878965,
                1,
                0,
                0,
                -1,
                -0.000000043711398944878965,
                0,
                0,
                0,
                0,
                1
            ],
            "meshes": [
                "__002-mesh"
            ],
            "name": "__002"
        },
        "__003": {
            "children": [],
            "matrix": [
                1,
                0,
                0,
                0,
                0,
                -0.000000043711398944878965,
                1,
                0,
                0,
                -1,
                -0.000000043711398944878965,
                0,
                0,
                0,
                0,
                1
            ],
            "meshes": [
                "__003-mesh"
            ],
            "name": "__003"
        },
        "__004": {
            "children": [],
            "matrix": [
                1,
                0,
                0,
                0,
                0,
                -0.000000043711398944878965,
                1,
                0,
                0,
                -1,
                -0.000000043711398944878965,
                0,
                0,
                0,
                0,
                1
            ],
            "meshes": [
                "__004-mesh"
            ],
            "name": "__004"
        },
        "node_7": {
            "children": [
                "Camera",
                "Lamp",
                "_",
                "__001",
                "__002",
                "__003",
                "__004"
            ],
            "matrix": [
                1,
                0,
                0,
                0,
                0,
                0,
                -1,
                0,
                0,
                1,
                0,
                0,
                0,
                0,
                0,
                1
            ],
            "name": "Y_UP_Transform"
        }
    },
    "programs": {
        "program_0": {
            "attributes": [
                "a_normal",
                "a_position"
            ],
            "fragmentShader": "input0FS",
            "vertexShader": "input0VS"
        }
    },
    "scene": "defaultScene",
    "scenes": {
        "defaultScene": {
            "nodes": [
                "node_7"
            ]
        }
    },
    "shaders": {
        "input0FS": {
            "type": 35632,
            "uri": "data:text/plain;base64,"
        },
        "input0VS": {
            "type": 35633,
            "uri": "data:text/plain;base64,"
        }
    },
    "skins": {},
    "techniques": {
        "technique0": {
            "attributes": {
                "a_normal": "normal",
                "a_position": "position"
            },
            "parameters": {
                "ambient": {
                    "type": 35666
                },
                "diffuse": {
                    "type": 35666
                },
                "emission": {
                    "type": 35666
                },
                "light0Color": {
                    "type": 35665,
                    "value": [
                        1,
                        1,
                        1
                    ]
                },
                "light0ConstantAttenuation": {
                    "type": 5126,
                    "value": 1
                },
                "light0LinearAttenuation": {
                    "type": 5126,
                    "value": 0
                },
                "light0QuadraticAttenuation": {
                    "type": 5126,
                    "value": 0.001111089950427413
                },
                "light0Transform": {
                    "node": "Lamp",
                    "semantic": "MODELVIEW",
                    "type": 35676
                },
                "modelViewMatrix": {
                    "semantic": "MODELVIEW",
                    "type": 35676
                },
                "normal": {
                    "semantic": "NORMAL",
                    "type": 35665
                },
                "normalMatrix": {
                    "semantic": "MODELVIEWINVERSETRANSPOSE",
                    "type": 35675
                },
                "position": {
                    "semantic": "POSITION",
                    "type": 35665
                },
                "projectionMatrix": {
                    "semantic": "PROJECTION",
                    "type": 35676
                },
                "shininess": {
                    "type": 5126
                },
                "specular": {
                    "type": 35666
                }
            },
            "program": "program_0",
            "states": {
                "enable": [
                    2929,
                    2884
                ]
            },
            "uniforms": {
                "u_ambient": "ambient",
                "u_diffuse": "diffuse",
                "u_emission": "emission",
                "u_light0Color": "light0Color",
                "u_light0ConstantAttenuation": "light0ConstantAttenuation",
                "u_light0LinearAttenuation": "light0LinearAttenuation",
                "u_light0QuadraticAttenuation": "light0QuadraticAttenuation",
                "u_light0Transform": "light0Transform",
                "u_modelViewMatrix": "modelViewMatrix",
                "u_normalMatrix": "normalMatrix",
                "u_projectionMatrix": "projectionMatrix",
                "u_shininess": "shininess",
                "u_specular": "specular"
            }
        }
    }
}